<svg version="1.1" id="Layer_1" xmlns="http://www.w3.org/2000/svg" xmlns:xlink="http://www.w3.org/1999/xlink" x="0px" y="0px"
	 width="100%" viewBox="0 0 2172 724" enable-background="new 0 0 2172 724" xml:space="preserve">
<path fill="#000000" opacity="1.000000" stroke="none" 
	d="
M2038.000000,725.000000 
	C1358.666626,725.000000 679.833313,725.000000 1.000000,725.000000 
	C1.000000,483.666656 1.000000,242.333328 1.000000,1.000000 
	C725.000000,1.000000 1449.000000,1.000000 2173.000000,1.000000 
	C2173.000000,242.333328 2173.000000,483.666656 2173.000000,725.000000 
	C2128.166748,725.000000 2083.333252,725.000000 2038.000000,725.000000 
M664.189026,317.104828 
	C664.459656,317.297241 664.730225,317.489655 665.000854,317.682037 
	C664.586426,317.785339 664.172058,317.888641 663.502319,317.211670 
	C664.558167,315.529083 665.490356,313.749237 666.711731,312.196930 
	C667.575378,311.099274 669.164185,310.506500 669.848633,309.345917 
	C671.938110,305.803192 673.746643,302.094788 675.990295,297.832001 
	C675.424377,297.520660 673.910095,296.687531 672.667847,295.195099 
	C682.448853,281.130981 690.136658,266.133942 693.498291,249.150681 
	C695.547974,238.795303 693.504028,222.368973 688.823425,215.134125 
	C690.360718,247.509933 676.791260,273.743622 657.226257,297.413971 
	C645.663147,311.403473 633.371216,324.798889 621.209412,338.283203 
	C604.301697,357.029572 592.631714,378.346649 588.905029,403.532043 
	C586.494568,419.822174 584.535034,436.179047 581.542603,451.864838 
	C578.223572,450.792816 575.794128,449.369629 575.742554,445.065674 
	C575.714600,442.738251 573.756836,440.433960 572.828369,438.457214 
	C570.828125,441.088623 569.303406,443.094482 567.411316,444.453430 
	C567.263733,442.971771 567.116211,441.490143 567.392883,439.756439 
	C567.160095,439.147949 566.927307,438.539459 566.344177,437.116028 
	C566.194580,434.755341 566.044922,432.394653 566.445923,429.559845 
	C569.899292,423.045074 571.954773,416.495544 570.147766,408.812195 
	C568.640442,402.402771 568.221863,401.341431 560.977722,400.353943 
	C560.925293,399.916534 560.872864,399.479156 561.652588,398.997375 
	C563.074951,398.015778 565.510132,397.224731 565.737183,396.018219 
	C566.546875,391.715027 563.113403,387.328796 565.690369,382.857086 
	C565.835876,382.604584 564.987305,381.836029 564.689087,381.262085 
	C562.048767,376.181030 558.317688,379.622925 554.494812,379.470673 
	C548.235962,363.677521 539.105591,349.678955 527.788330,337.087738 
	C518.554260,326.814178 509.111633,316.727936 499.891571,306.442017 
	C484.030884,288.747894 471.472565,269.032990 465.240784,245.918274 
	C462.610992,236.163818 461.519958,225.994522 459.763123,216.201462 
	C459.591675,216.656433 459.205658,217.500443 458.951141,218.382431 
	C452.195648,241.794983 457.770569,263.362030 469.945343,283.352386 
	C477.089905,295.083405 485.950623,305.769165 493.573822,317.483093 
	C491.270294,318.376709 488.966736,319.270355 486.131897,319.849213 
	C485.320831,319.087982 484.509766,318.326782 482.881683,316.798767 
	C487.484283,329.405151 494.494293,339.043945 502.608978,347.965088 
	C508.991821,354.982300 515.463135,361.919556 521.795837,368.981354 
	C522.825378,370.129425 523.338989,371.740173 524.402588,373.715698 
	C505.594421,365.000854 487.739136,356.727539 469.883850,348.454224 
	C474.871552,357.603851 482.889465,362.562042 491.120911,367.353302 
	C508.229401,377.311768 525.951233,386.468079 538.729431,402.647980 
	C539.171997,401.170990 539.500610,400.074280 540.596680,398.969055 
	C543.098328,397.975372 545.599915,396.981689 548.620361,396.558960 
	C549.763977,401.559479 551.160767,406.517609 552.005981,411.568085 
	C555.146545,430.334564 557.686218,449.212250 561.284241,467.887756 
	C563.573853,479.772034 567.332886,491.373260 570.432983,503.101410 
	C570.897827,503.015564 571.362610,502.929749 571.827454,502.843903 
	C572.057251,502.251434 572.287048,501.658966 573.296875,501.081451 
	C575.429016,501.249115 577.561218,501.416779 579.880432,502.220947 
	C580.087219,502.420715 580.276245,502.646667 580.510864,502.805237 
	C580.587036,502.856750 580.876892,502.768097 580.909485,502.682770 
	C582.973267,497.273651 585.311829,491.948273 587.017334,486.427429 
	C593.322449,466.017090 595.643433,444.933746 597.307251,423.739868 
	C598.414551,409.635468 601.134705,395.849640 607.109741,383.020325 
	C609.011353,383.715485 610.912964,384.410614 612.715942,385.912598 
	C611.865540,391.513733 611.015076,397.114899 609.989624,403.868683 
	C616.077209,398.204987 620.463135,393.041687 625.849426,389.329987 
	C638.559082,380.571777 651.884949,372.711761 664.677673,364.068237 
	C670.780640,359.944672 676.236694,354.863617 681.985840,350.216248 
	C681.507751,349.472229 681.029663,348.728180 680.551636,347.984131 
	C662.203125,357.185455 643.854675,366.386749 624.760437,375.040161 
	C624.484070,374.903076 624.207703,374.765991 624.096741,373.911774 
	C629.957703,367.166138 636.165771,360.686737 641.593445,353.608887 
	C648.711426,344.327026 655.304199,334.634186 661.859619,324.940063 
	C662.623779,323.810120 661.718262,321.550964 662.643005,318.418182 
	C663.052795,318.002380 663.462585,317.586578 664.189026,317.104828 
M1417.890015,392.933533 
	C1417.890015,413.541077 1417.890015,434.148651 1417.890015,454.662140 
	C1424.280029,454.662140 1430.044189,454.662140 1436.166748,454.662140 
	C1436.166748,434.209503 1436.122925,414.071136 1436.233887,393.933624 
	C1436.245117,391.909180 1436.700562,389.567902 1437.780151,387.916504 
	C1454.436646,362.440491 1471.234253,337.056641 1487.990479,311.645874 
	C1492.618896,304.626923 1497.219360,297.589569 1502.217651,289.974060 
	C1496.161621,289.974060 1491.001221,290.235565 1485.883301,289.881531 
	C1482.509033,289.648132 1480.833740,291.103516 1479.175049,293.717041 
	C1463.490356,318.430023 1447.705444,343.079376 1431.939819,367.740875 
	C1430.642822,369.769745 1429.274902,371.753387 1427.720459,374.087555 
	C1410.706421,347.009918 1394.105713,320.520721 1377.371582,294.116058 
	C1376.275513,292.386353 1374.243774,290.250916 1372.501221,290.110107 
	C1366.416138,289.618286 1360.266846,289.919678 1353.536621,289.919678 
	C1354.718506,291.872864 1355.522827,293.286530 1356.406250,294.648773 
	C1368.449341,313.219513 1380.589600,331.728027 1392.524536,350.368073 
	C1400.494751,362.816101 1408.175903,375.449158 1415.210205,387.994904 
	C1413.606079,389.223236 1410.618530,390.440247 1410.608521,391.681580 
	C1410.484985,406.797119 1410.812866,421.916046 1410.991699,437.034454 
	C1411.045898,441.619171 1410.802612,446.219025 1411.123047,450.781921 
	C1411.221436,452.181519 1412.742065,453.481232 1413.611328,454.826691 
	C1414.406982,453.404938 1415.360229,452.043701 1415.937622,450.538208 
	C1416.271606,449.667389 1415.999878,448.564148 1415.999878,447.565491 
	C1416.000000,430.754944 1415.950928,413.944061 1416.074829,397.134430 
	C1416.087402,395.423523 1417.140015,393.720276 1417.890015,392.933533 
M942.948792,456.228577 
	C962.419739,452.788574 978.807251,443.721985 991.174988,428.313660 
	C1015.566162,397.926178 1017.907715,358.542480 997.799988,325.151642 
	C975.895569,288.777283 927.122131,276.106049 890.023621,296.247314 
	C848.228516,318.938324 835.567322,370.253021 853.479553,409.454834 
	C869.184448,443.825836 903.393127,461.896210 942.948792,456.228577 
M1190.347900,390.027405 
	C1195.721558,388.915619 1198.531250,391.500671 1201.197388,396.076202 
	C1211.918579,414.475128 1223.051514,432.635620 1234.186523,450.789642 
	C1235.252808,452.528076 1237.297119,454.650269 1239.046387,454.805695 
	C1244.773438,455.314423 1250.573853,454.996674 1257.350098,454.996674 
	C1243.033936,432.063568 1229.185669,409.880188 1215.244019,387.547089 
	C1217.130127,386.971954 1218.398193,386.608765 1219.651123,386.199646 
	C1236.171509,380.805634 1248.044556,370.418762 1251.690063,353.081482 
	C1255.602539,334.474854 1252.555542,317.178406 1237.441650,303.846008 
	C1226.444580,294.145294 1213.159058,290.151184 1198.772827,289.998383 
	C1177.122070,289.768433 1155.466675,289.965149 1133.813232,289.979950 
	C1131.362427,289.981628 1128.911743,289.980164 1126.184204,289.980164 
	C1126.184204,345.151123 1126.184204,399.848846 1126.184204,454.552948 
	C1132.159058,454.552948 1137.882568,454.552948 1144.069580,454.552948 
	C1144.069580,432.897888 1144.069580,411.651550 1144.069580,390.023315 
	C1159.488892,390.023315 1174.435059,390.023315 1190.347900,390.027405 
M1705.039185,333.631836 
	C1715.477295,319.284851 1725.915405,304.937866 1736.820312,289.949341 
	C1730.303345,289.949341 1724.636841,289.665100 1719.025391,290.096436 
	C1716.930542,290.257477 1714.237549,291.570465 1713.049927,293.236786 
	C1699.525391,312.213013 1686.245605,331.363647 1672.881836,350.454620 
	C1671.230835,352.812927 1669.472168,355.095825 1667.592896,357.645203 
	C1652.779297,336.331573 1638.378662,315.547791 1623.867554,294.841522 
	C1622.531738,292.935425 1620.604248,290.277313 1618.755981,290.108521 
	C1612.346924,289.523224 1605.851562,289.882690 1598.842163,289.882690 
	C1599.963501,291.589020 1600.643799,292.711639 1601.407959,293.774048 
	C1618.799316,317.956543 1636.123657,342.187927 1653.680908,366.249451 
	C1656.280640,369.812134 1656.269287,372.195374 1653.650513,375.725800 
	C1639.570679,394.705872 1625.732544,413.865417 1611.856812,432.996368 
	C1606.750488,440.036652 1601.769775,447.168060 1596.224243,454.972046 
	C1602.648438,454.972046 1607.976196,455.270538 1613.240845,454.823822 
	C1615.322021,454.647278 1617.945679,453.312683 1619.159912,451.654236 
	C1629.875366,437.018921 1640.303223,422.173431 1650.870728,407.429199 
	C1656.258179,399.912415 1661.757324,392.475647 1667.427368,384.698975 
	C1668.948730,386.816010 1670.117676,388.428009 1671.271484,390.050690 
	C1685.837524,410.533020 1700.389648,431.025208 1714.993286,451.480652 
	C1715.918213,452.776306 1717.190796,454.712036 1718.386963,454.776886 
	C1724.552246,455.111267 1730.745483,454.932037 1738.080078,454.932037 
	C1727.379150,439.991882 1717.479126,426.232239 1707.646606,412.424591 
	C1697.808350,398.608826 1688.037598,384.744965 1678.141113,370.766357 
	C1687.068359,358.442932 1695.844971,346.327454 1705.039185,333.631836 
z"/>
<path fill="#F6F6F7" opacity="1.000000" stroke="none" 
	d="
M942.522705,456.303864 
	C903.393127,461.896210 869.184448,443.825836 853.479553,409.454834 
	C835.567322,370.253021 848.228516,318.938324 890.023621,296.247314 
	C927.122131,276.106049 975.895569,288.777283 997.799988,325.151642 
	C1017.907715,358.542480 1015.566162,397.926178 991.174988,428.313660 
	C978.807251,443.721985 962.419739,452.788574 942.522705,456.303864 
M972.617798,422.118317 
	C992.504639,401.255951 997.870789,376.835541 989.235046,349.659729 
	C972.466187,296.889923 910.703003,292.472046 881.648010,324.290436 
	C861.287170,346.587738 858.189514,386.469025 875.215820,412.205811 
	C896.970215,445.089233 945.346619,449.300903 972.617798,422.118317 
z"/>
<path fill="#F7F7F8" opacity="1.000000" stroke="none" 
	d="
M1189.864502,390.025360 
	C1174.435059,390.023315 1159.488892,390.023315 1144.069580,390.023315 
	C1144.069580,411.651550 1144.069580,432.897888 1144.069580,454.552948 
	C1137.882568,454.552948 1132.159058,454.552948 1126.184204,454.552948 
	C1126.184204,399.848846 1126.184204,345.151123 1126.184204,289.980164 
	C1128.911743,289.980164 1131.362427,289.981628 1133.813232,289.979950 
	C1155.466675,289.965149 1177.122070,289.768433 1198.772827,289.998383 
	C1213.159058,290.151184 1226.444580,294.145294 1237.441650,303.846008 
	C1252.555542,317.178406 1255.602539,334.474854 1251.690063,353.081482 
	C1248.044556,370.418762 1236.171509,380.805634 1219.651123,386.199646 
	C1218.398193,386.608765 1217.130127,386.971954 1215.244019,387.547089 
	C1229.185669,409.880188 1243.033936,432.063568 1257.350098,454.996674 
	C1250.573853,454.996674 1244.773438,455.314423 1239.046387,454.805695 
	C1237.297119,454.650269 1235.252808,452.528076 1234.186523,450.789642 
	C1223.051514,432.635620 1211.918579,414.475128 1201.197388,396.076202 
	C1198.531250,391.500671 1195.721558,388.915619 1189.864502,390.025360 
M1153.544678,373.960785 
	C1168.876465,373.945038 1184.209351,374.032227 1199.539673,373.875000 
	C1208.745850,373.780609 1217.495361,371.677094 1224.462769,365.267853 
	C1235.188110,355.401764 1237.346313,342.945404 1233.280396,329.576721 
	C1229.101929,315.838409 1218.697998,308.011261 1204.863159,307.290161 
	C1184.799072,306.244385 1164.640015,307.022156 1144.335938,307.022156 
	C1144.335938,329.184113 1144.335938,351.411987 1144.335938,373.963165 
	C1147.285400,373.963165 1149.922607,373.963165 1153.544678,373.960785 
z"/>
<path fill="#F6F6F6" opacity="1.000000" stroke="none" 
	d="
M1704.830322,333.921906 
	C1695.844971,346.327454 1687.068359,358.442932 1678.141113,370.766357 
	C1688.037598,384.744965 1697.808350,398.608826 1707.646606,412.424591 
	C1717.479126,426.232239 1727.379150,439.991882 1738.080078,454.932037 
	C1730.745483,454.932037 1724.552246,455.111267 1718.386963,454.776886 
	C1717.190796,454.712036 1715.918213,452.776306 1714.993286,451.480652 
	C1700.389648,431.025208 1685.837524,410.533020 1671.271484,390.050690 
	C1670.117676,388.428009 1668.948730,386.816010 1667.427368,384.698975 
	C1661.757324,392.475647 1656.258179,399.912415 1650.870728,407.429199 
	C1640.303223,422.173431 1629.875366,437.018921 1619.159912,451.654236 
	C1617.945679,453.312683 1615.322021,454.647278 1613.240845,454.823822 
	C1607.976196,455.270538 1602.648438,454.972046 1596.224243,454.972046 
	C1601.769775,447.168060 1606.750488,440.036652 1611.856812,432.996368 
	C1625.732544,413.865417 1639.570679,394.705872 1653.650513,375.725800 
	C1656.269287,372.195374 1656.280640,369.812134 1653.680908,366.249451 
	C1636.123657,342.187927 1618.799316,317.956543 1601.407959,293.774048 
	C1600.643799,292.711639 1599.963501,291.589020 1598.842163,289.882690 
	C1605.851562,289.882690 1612.346924,289.523224 1618.755981,290.108521 
	C1620.604248,290.277313 1622.531738,292.935425 1623.867554,294.841522 
	C1638.378662,315.547791 1652.779297,336.331573 1667.592896,357.645203 
	C1669.472168,355.095825 1671.230835,352.812927 1672.881836,350.454620 
	C1686.245605,331.363647 1699.525391,312.213013 1713.049927,293.236786 
	C1714.237549,291.570465 1716.930542,290.257477 1719.025391,290.096436 
	C1724.636841,289.665100 1730.303345,289.949341 1736.820312,289.949341 
	C1725.915405,304.937866 1715.477295,319.284851 1704.830322,333.921906 
z"/>
<path fill="#F6F6F7" opacity="1.000000" stroke="none" 
	d="
M1415.986328,387.999451 
	C1408.175903,375.449158 1400.494751,362.816101 1392.524536,350.368073 
	C1380.589600,331.728027 1368.449341,313.219513 1356.406250,294.648773 
	C1355.522827,293.286530 1354.718506,291.872864 1353.536621,289.919678 
	C1360.266846,289.919678 1366.416138,289.618286 1372.501221,290.110107 
	C1374.243774,290.250916 1376.275513,292.386353 1377.371582,294.116058 
	C1394.105713,320.520721 1410.706421,347.009918 1427.720459,374.087555 
	C1429.274902,371.753387 1430.642822,369.769745 1431.939819,367.740875 
	C1447.705444,343.079376 1463.490356,318.430023 1479.175049,293.717041 
	C1480.833740,291.103516 1482.509033,289.648132 1485.883301,289.881531 
	C1491.001221,290.235565 1496.161621,289.974060 1502.217651,289.974060 
	C1497.219360,297.589569 1492.618896,304.626923 1487.990479,311.645874 
	C1471.234253,337.056641 1454.436646,362.440491 1437.780151,387.916504 
	C1436.700562,389.567902 1436.245117,391.909180 1436.233887,393.933624 
	C1436.122925,414.071136 1436.166748,434.209503 1436.166748,454.662140 
	C1430.044189,454.662140 1424.280029,454.662140 1417.890015,454.662140 
	C1417.890015,434.148651 1417.890015,413.541077 1417.884766,392.148865 
	C1417.248413,390.242645 1416.617310,389.121033 1415.986328,387.999451 
z"/>
<path fill="#F1F1F1" opacity="1.000000" stroke="none" 
	d="
M582.373474,452.506012 
	C584.535034,436.179047 586.494568,419.822174 588.905029,403.532043 
	C592.631714,378.346649 604.301697,357.029572 621.209412,338.283203 
	C633.371216,324.798889 645.663147,311.403473 657.226257,297.413971 
	C676.791260,273.743622 690.360718,247.509933 688.823425,215.134125 
	C693.504028,222.368973 695.547974,238.795303 693.498291,249.150681 
	C690.136658,266.133942 682.448853,281.130981 672.284058,295.727905 
	C660.621460,312.217773 646.865906,326.034668 633.790344,340.443878 
	C622.379517,353.018555 611.616455,366.049835 606.315491,382.620514 
	C601.134705,395.849640 598.414551,409.635468 597.307251,423.739868 
	C595.643433,444.933746 593.322449,466.017090 587.017334,486.427429 
	C585.311829,491.948273 582.973267,497.273651 580.909485,502.682770 
	C580.876892,502.768097 580.587036,502.856750 580.510864,502.805237 
	C580.276245,502.646667 580.087219,502.420715 579.893188,501.476105 
	C580.728516,484.656189 581.551025,468.581085 582.373474,452.506012 
z"/>
<path fill="#F1F0F1" opacity="1.000000" stroke="none" 
	d="
M494.039429,316.925079 
	C485.950623,305.769165 477.089905,295.083405 469.945343,283.352386 
	C457.770569,263.362030 452.195648,241.794983 458.951141,218.382431 
	C459.205658,217.500443 459.591675,216.656433 459.763123,216.201462 
	C461.519958,225.994522 462.610992,236.163818 465.240784,245.918274 
	C471.472565,269.032990 484.030884,288.747894 499.891571,306.442017 
	C509.111633,316.727936 518.554260,326.814178 527.788330,337.087738 
	C539.105591,349.678955 548.235962,363.677521 554.735474,380.119965 
	C556.924194,386.860107 558.872314,392.950928 560.820435,399.041748 
	C560.872864,399.479156 560.925293,399.916534 561.059814,401.033264 
	C561.716553,403.821106 562.291199,405.929657 562.855591,408.413666 
	C563.105164,410.246521 563.365051,411.703918 563.558472,413.516296 
	C564.293091,419.258820 565.094238,424.646393 565.895264,430.033966 
	C566.044922,432.394653 566.194580,434.755341 566.407776,437.780365 
	C566.637146,438.965973 566.802917,439.487213 566.968689,440.008484 
	C567.116211,441.490143 567.263733,442.971771 567.539551,445.176636 
	C568.245361,448.638306 568.822998,451.376740 569.395630,454.536621 
	C569.976440,458.298370 570.562195,461.638733 571.062988,465.419800 
	C571.490967,477.595886 572.003967,489.331207 572.516968,501.066528 
	C572.287048,501.658966 572.057251,502.251434 571.827454,502.843903 
	C571.362610,502.929749 570.897827,503.015564 570.432983,503.101410 
	C567.332886,491.373260 563.573853,479.772034 561.284241,467.887756 
	C557.686218,449.212250 555.146545,430.334564 552.005981,411.568085 
	C551.160767,406.517609 549.763977,401.559479 548.371948,395.880646 
	C546.190491,389.753967 544.544556,384.182739 542.275330,378.878174 
	C531.640015,354.016357 512.257996,335.913513 494.039429,316.925079 
z"/>
<path fill="#EFEFEF" opacity="1.000000" stroke="none" 
	d="
M625.506226,375.588074 
	C643.854675,366.386749 662.203125,357.185455 680.551636,347.984131 
	C681.029663,348.728180 681.507751,349.472229 681.985840,350.216248 
	C676.236694,354.863617 670.780640,359.944672 664.677673,364.068237 
	C651.884949,372.711761 638.559082,380.571777 625.849426,389.329987 
	C620.463135,393.041687 616.077209,398.204987 609.989624,403.868683 
	C611.015076,397.114899 611.865540,391.513733 612.962646,385.259949 
	C618.852478,370.641754 626.739502,358.054504 636.776733,346.854401 
	C644.939819,337.745544 653.309021,328.821411 661.586853,319.815369 
	C661.718262,321.550964 662.623779,323.810120 661.859619,324.940063 
	C655.304199,334.634186 648.711426,344.327026 641.593445,353.608887 
	C636.165771,360.686737 629.957703,367.166138 623.791748,374.578827 
	C624.159851,375.359955 624.833069,375.474030 625.506226,375.588074 
z"/>
<path fill="#F0F0F0" opacity="1.000000" stroke="none" 
	d="
M539.829224,398.977600 
	C539.500610,400.074280 539.171997,401.170990 538.729431,402.647980 
	C525.951233,386.468079 508.229401,377.311768 491.120911,367.353302 
	C482.889465,362.562042 474.871552,357.603851 469.883850,348.454224 
	C487.739136,356.727539 505.594421,365.000854 524.402588,373.715698 
	C523.338989,371.740173 522.825378,370.129425 521.795837,368.981354 
	C515.463135,361.919556 508.991821,354.982300 502.608978,347.965088 
	C494.494293,339.043945 487.484283,329.405151 482.881683,316.798767 
	C484.509766,318.326782 485.320831,319.087982 486.521759,320.326660 
	C497.415039,331.628906 508.675690,341.831207 518.221741,353.443085 
	C529.064880,366.632904 538.070740,381.225647 539.829224,398.977600 
M523.739929,374.042542 
	C524.190796,374.718536 524.641663,375.394531 525.092468,376.070496 
	C525.754333,375.392090 526.416260,374.713684 527.078125,374.035278 
	C526.161682,373.821625 525.245239,373.607971 523.739929,374.042542 
z"/>
<path fill="#111011" opacity="1.000000" stroke="none" 
	d="
M540.212952,398.973328 
	C538.070740,381.225647 529.064880,366.632904 518.221741,353.443085 
	C508.675690,341.831207 497.415039,331.628906 486.787415,320.484009 
	C488.966736,319.270355 491.270294,318.376709 493.806641,317.204102 
	C512.257996,335.913513 531.640015,354.016357 542.275330,378.878174 
	C544.544556,384.182739 546.190491,389.753967 548.112549,395.595184 
	C545.599915,396.981689 543.098328,397.975372 540.212952,398.973328 
z"/>
<path fill="#111111" opacity="1.000000" stroke="none" 
	d="
M662.114929,319.116760 
	C653.309021,328.821411 644.939819,337.745544 636.776733,346.854401 
	C626.739502,358.054504 618.852478,370.641754 613.011963,384.856537 
	C610.912964,384.410614 609.011353,383.715485 606.712646,382.820435 
	C611.616455,366.049835 622.379517,353.018555 633.790344,340.443878 
	C646.865906,326.034668 660.621460,312.217773 672.148071,296.057556 
	C673.910095,296.687531 675.424377,297.520660 675.990295,297.832001 
	C673.746643,302.094788 671.938110,305.803192 669.848633,309.345917 
	C669.164185,310.506500 667.575378,311.099274 666.711731,312.196930 
	C665.490356,313.749237 664.558167,315.529083 663.417480,317.352173 
	C663.512512,317.385376 663.692444,317.278076 663.872375,317.170776 
	C663.462585,317.586578 663.052795,318.002380 662.114929,319.116760 
z"/>
<path fill="#1B1B1B" opacity="1.000000" stroke="none" 
	d="
M569.400696,454.115173 
	C568.822998,451.376740 568.245361,448.638306 567.723145,445.500122 
	C569.303406,443.094482 570.828125,441.088623 572.828369,438.457214 
	C573.756836,440.433960 575.714600,442.738251 575.742554,445.065674 
	C575.794128,449.369629 578.223572,450.792816 581.958008,452.185425 
	C581.551025,468.581085 580.728516,484.656189 579.799683,501.157837 
	C577.561218,501.416779 575.429016,501.249115 572.906921,501.073975 
	C572.003967,489.331207 571.490967,477.595886 571.449707,465.413483 
	C572.919312,462.443298 574.565369,459.930634 574.606201,457.392120 
	C574.623291,456.327972 571.238770,455.209137 569.400696,454.115173 
M578.461304,483.600983 
	C578.461304,483.600983 578.393311,483.480743 578.461304,483.600983 
z"/>
<path fill="#080808" opacity="1.000000" stroke="none" 
	d="
M1415.598267,387.997192 
	C1416.617310,389.121033 1417.248413,390.242645 1417.794678,391.688843 
	C1417.140015,393.720276 1416.087402,395.423523 1416.074829,397.134430 
	C1415.950928,413.944061 1416.000000,430.754944 1415.999878,447.565491 
	C1415.999878,448.564148 1416.271606,449.667389 1415.937622,450.538208 
	C1415.360229,452.043701 1414.406982,453.404938 1413.611328,454.826691 
	C1412.742065,453.481232 1411.221436,452.181519 1411.123047,450.781921 
	C1410.802612,446.219025 1411.045898,441.619171 1410.991699,437.034454 
	C1410.812866,421.916046 1410.484985,406.797119 1410.608521,391.681580 
	C1410.618530,390.440247 1413.606079,389.223236 1415.598267,387.997192 
z"/>
<path fill="#1B1B1B" opacity="1.000000" stroke="none" 
	d="
M561.236511,399.019562 
	C558.872314,392.950928 556.924194,386.860107 554.977844,380.386414 
	C558.317688,379.622925 562.048767,376.181030 564.689087,381.262085 
	C564.987305,381.836029 565.835876,382.604584 565.690369,382.857086 
	C563.113403,387.328796 566.546875,391.715027 565.737183,396.018219 
	C565.510132,397.224731 563.074951,398.015778 561.236511,399.019562 
z"/>
<path fill="#1B1B1B" opacity="1.000000" stroke="none" 
	d="
M562.865906,408.038208 
	C562.291199,405.929657 561.716553,403.821106 561.186768,401.340179 
	C568.221863,401.341431 568.640442,402.402771 570.147766,408.812195 
	C571.954773,416.495544 569.899292,423.045074 566.170654,429.796906 
	C565.094238,424.646393 564.293091,419.258820 563.956116,413.434875 
	C566.791199,410.439789 567.491089,408.404694 562.865906,408.038208 
z"/>
<path fill="#1B1B1B" opacity="1.000000" stroke="none" 
	d="
M567.180786,439.882446 
	C566.802917,439.487213 566.637146,438.965973 566.583008,438.187836 
	C566.927307,438.539459 567.160095,439.147949 567.180786,439.882446 
z"/>
<path fill="#EFEFEF" opacity="1.000000" stroke="none" 
	d="
M664.030701,317.137817 
	C663.692444,317.278076 663.512512,317.385376 663.545105,317.742310 
	C664.172058,317.888641 664.586426,317.785339 665.000854,317.682068 
	C664.730225,317.489655 664.459656,317.297241 664.030701,317.137817 
z"/>
<path fill="#020202" opacity="1.000000" stroke="none" 
	d="
M972.364258,422.368866 
	C945.346619,449.300903 896.970215,445.089233 875.215820,412.205811 
	C858.189514,386.469025 861.287170,346.587738 881.648010,324.290436 
	C910.703003,292.472046 972.466187,296.889923 989.235046,349.659729 
	C997.870789,376.835541 992.504639,401.255951 972.364258,422.368866 
z"/>
<path fill="#030303" opacity="1.000000" stroke="none" 
	d="
M1153.052246,373.961975 
	C1149.922607,373.963165 1147.285400,373.963165 1144.335938,373.963165 
	C1144.335938,351.411987 1144.335938,329.184113 1144.335938,307.022156 
	C1164.640015,307.022156 1184.799072,306.244385 1204.863159,307.290161 
	C1218.697998,308.011261 1229.101929,315.838409 1233.280396,329.576721 
	C1237.346313,342.945404 1235.188110,355.401764 1224.462769,365.267853 
	C1217.495361,371.677094 1208.745850,373.780609 1199.539673,373.875000 
	C1184.209351,374.032227 1168.876465,373.945038 1153.052246,373.961975 
z"/>
<path fill="#000000" opacity="1.000000" stroke="none" 
	d="
M569.395630,454.536621 
	C571.238770,455.209137 574.623291,456.327972 574.606201,457.392120 
	C574.565369,459.930634 572.919312,462.443298 571.534729,464.972717 
	C570.562195,461.638733 569.976440,458.298370 569.395630,454.536621 
z"/>
<path fill="#000000" opacity="1.000000" stroke="none" 
	d="
M562.855591,408.413666 
	C567.491089,408.404694 566.791199,410.439789 564.022583,413.079926 
	C563.365051,411.703918 563.105164,410.246521 562.855591,408.413666 
z"/>
<path fill="#000000" opacity="1.000000" stroke="none" 
	d="
M625.133301,375.314148 
	C624.833069,375.474030 624.159851,375.359955 623.709045,374.937408 
	C624.207703,374.765991 624.484070,374.903076 625.133301,375.314148 
z"/>
<path fill="#000000" opacity="1.000000" stroke="none" 
	d="
M524.034363,373.718445 
	C525.245239,373.607971 526.161682,373.821625 527.078125,374.035278 
	C526.416260,374.713684 525.754333,375.392090 525.092468,376.070496 
	C524.641663,375.394531 524.190796,374.718536 524.034363,373.718445 
z"/>
<path fill="#000000" opacity="1.000000" stroke="none" 
	d="
M578.427307,483.540863 
	C578.393311,483.480743 578.461304,483.600983 578.427307,483.540863 
z"/>
</svg>